<svg width="120" height="24" viewBox="0 0 120 24" fill="none" xmlns="http://www.w3.org/2000/svg">
<path d="M23.3399 10.869C23.3399 10.869 23.8973 4.63251 23.9438 4.01698C24.0251 3.02982 23.2354 1.25293 21.3307 1.25293H15.6981H12.3185H11.7843H5.58259C3.67795 1.25293 2.74886 2.55366 2.63272 3.78471C2.55142 4.51637 1.25069 19.6025 1.1694 20.4735C1.03003 21.8672 2.00558 23.4583 3.75925 23.4583H10.379H13.1431H19.4261C21.5049 23.4583 22.3179 22.355 22.4921 20.6594C22.5966 19.649 23.1076 13.5053 23.1076 13.5053H13.6425L13.236 18.2553H10.832L11.8656 6.46746H14.258L13.8747 10.8807H23.3399V10.869Z" fill="#008C95"/>
<path d="M37.9459 3.15757C37.6091 4.13312 34.8566 12.7505 34.8566 12.7505L36.0761 1.25293H26.6109L24.625 23.4583H31.7558C33.5443 23.4583 34.1598 22.4362 34.4618 21.6233C34.8218 20.6477 37.4465 13.4008 37.4465 13.4008L36.4825 23.4583H45.9477L47.9104 1.25293C47.9104 1.25293 41.128 1.25293 40.4776 1.25293C38.8285 1.25293 38.1898 2.47236 37.9459 3.15757Z" fill="#008C95"/>
<path d="M85.8988 1.25282L85.0162 11.3799H82.6121L83.5064 1.25282H74.0413C74.0413 1.25282 73.1354 11.9722 73.0425 13.0058C72.9263 14.2369 73.6232 15.9906 75.7252 15.9906H84.6213L84.4239 18.2436H72.5779L72.125 23.4465H84.3426H84.8768H90.9624C92.2399 23.4465 93.4709 22.6103 93.6335 20.8335C93.738 19.6953 95.3755 1.24121 95.3755 1.24121H85.8988V1.25282Z" fill="#008C95"/>
<path d="M106.288 11.9723L106.764 6.46746H109.133L108.657 11.9723H106.288ZM110.62 1.25293H107.229H97.7636L95.8125 23.4583H105.278L105.882 16.583H109.273H108.646H115.08C116.705 16.583 117.786 15.7584 117.96 13.8538C118.029 13.1105 118.773 4.70219 118.831 3.95891C118.947 2.32139 117.635 1.25293 116.02 1.25293H110.62Z" fill="#008C95"/>
<path d="M60.6623 18.836H58.2466L58.7228 13.3311H61.1384L60.6623 18.836ZM59.1293 8.7089L59.3267 6.45585H71.1842L71.6372 1.25293H59.7796H59.2454H50.3145L48.375 23.4583H51.9288C51.9288 23.4583 66.1207 23.4583 67.2704 23.4583C68.4666 23.4583 69.7674 22.7498 69.9416 20.8916C70.0693 19.498 70.65 12.9014 70.7545 11.7052C70.8939 10.1025 69.8835 8.72051 67.8859 8.72051H59.1293V8.7089Z" fill="#008C95"/>
</svg>
