<svg width="47" height="16" viewBox="0 0 47 16" fill="none" xmlns="http://www.w3.org/2000/svg">
<path d="M3.69197 12.6898C3.15269 12.6898 2.69638 12.6071 2.24007 12.4005C1.78376 12.1939 1.41041 11.946 1.07855 11.5741C0.74669 11.2435 0.497793 10.789 0.29038 10.3344C0.0829656 9.87987 0 9.30136 0 8.72285V3.43359H1.82524V8.72285C1.82524 9.05343 1.86673 9.34269 1.99117 9.59062C2.11562 9.87988 2.28155 10.0865 2.44748 10.2931C2.6549 10.4997 2.86231 10.665 3.11121 10.789C3.36011 10.9129 3.65049 10.9543 3.94086 10.9543C4.23124 10.9543 4.52162 10.9129 4.812 10.789C5.10238 10.665 5.3098 10.4997 5.51721 10.2931C5.72462 10.0865 5.89056 9.83855 6.015 9.59062C6.13945 9.30136 6.18094 9.01211 6.18094 8.72285V3.43359H8.00618V12.6071H6.67873L6.2639 11.6981C6.09797 11.9047 5.89056 12.07 5.64166 12.1939C5.43425 12.3179 5.14387 12.4419 4.812 12.5658C4.48014 12.6898 4.14828 12.6898 3.69197 12.6898Z" fill="currentColor"/>
<path d="M15.2619 3.35156C15.8842 3.35156 16.4649 3.47553 16.9627 3.68214C17.4605 3.88875 17.9583 4.21933 18.3732 4.63255C18.788 5.04578 19.0784 5.54164 19.3273 6.12016C19.5347 6.69867 19.6591 7.3185 19.6591 8.02098C19.6591 8.72346 19.5347 9.3433 19.3273 9.92181C19.1198 10.5003 18.788 10.9962 18.3732 11.4094C17.9583 11.8226 17.502 12.1532 16.9627 12.3598C16.4235 12.6078 15.8427 12.6904 15.2619 12.6904C14.8056 12.6904 14.4323 12.6491 14.1419 12.5251C13.81 12.4425 13.5611 12.3185 13.3537 12.1532C13.1048 11.9879 12.8974 11.8226 12.7315 11.6573V15.459H10.9062V3.43421H12.2337L12.6485 4.3433C12.8145 4.13669 13.0219 3.9714 13.2708 3.80611C13.4782 3.68214 13.7686 3.55817 14.1004 3.47553C14.3908 3.39288 14.8056 3.35156 15.2619 3.35156ZM15.1375 10.9549C15.4694 10.9549 15.8427 10.8722 16.1331 10.7483C16.4649 10.6243 16.7553 10.4177 16.9627 10.1284C17.1702 9.83916 17.419 9.54991 17.5435 9.17801C17.6679 8.80611 17.7509 8.43421 17.7509 7.97966C17.7509 7.52512 17.6679 7.15321 17.5435 6.78131C17.419 6.40941 17.2116 6.12016 16.9627 5.8309C16.7138 5.54164 16.4235 5.37636 16.1331 5.21107C15.8427 5.04578 15.4694 5.00445 15.1375 5.00445C14.8056 5.00445 14.4323 5.0871 14.1419 5.21107C13.81 5.33503 13.5197 5.54164 13.3123 5.8309C13.0634 6.07883 12.8974 6.40941 12.7315 6.78131C12.607 7.15321 12.5241 7.52512 12.5241 7.97966C12.5241 8.43421 12.607 8.80611 12.7315 9.17801C12.8559 9.54991 13.0634 9.83916 13.3123 10.1284C13.5611 10.3764 13.8515 10.583 14.1419 10.7483C14.4738 10.9135 14.8056 10.9549 15.1375 10.9549Z" fill="currentColor"/>
<path d="M23.9815 12.6074H22.1562V0.5H23.9815V12.6074Z" fill="currentColor"/>
<path d="M33.9747 12.6075L33.5599 11.6984C33.394 11.905 33.1865 12.0703 32.9376 12.1942C32.7302 12.3182 32.4399 12.4422 32.108 12.5661C31.7761 12.6488 31.3613 12.7314 30.905 12.7314C30.2827 12.7314 29.702 12.6075 29.2042 12.4008C28.6649 12.1529 28.2086 11.8637 27.7938 11.4504C27.379 11.0372 27.0886 10.5413 26.8397 9.96283C26.6323 9.38431 26.5078 8.76448 26.5078 8.062C26.5078 7.35952 26.6323 6.73969 26.8397 6.16117C27.0471 5.58266 27.379 5.08679 27.7938 4.67357C28.2086 4.26035 28.6649 3.92977 29.2042 3.72316C29.7435 3.51655 30.3242 3.39258 30.905 3.39258C31.3613 3.39258 31.7761 3.4339 32.108 3.55787C32.4399 3.68183 32.7302 3.76448 32.9376 3.88845C33.1865 4.05374 33.394 4.21902 33.5599 4.42564L33.9747 3.51655H35.3022V12.6901H33.9747V12.6075ZM28.3331 8.02068C28.3331 8.47522 28.416 8.84712 28.5405 9.21902C28.6649 9.59093 28.8723 9.88018 29.1212 10.1694C29.3701 10.4587 29.6605 10.624 29.9509 10.7893C30.2827 10.9132 30.6146 10.9959 30.9465 10.9959C31.2783 10.9959 31.6517 10.9132 31.9421 10.7893C32.2739 10.6653 32.5643 10.4587 32.7717 10.1694C33.0206 9.9215 33.1865 9.59093 33.3525 9.21902C33.4769 8.84712 33.5599 8.47522 33.5599 8.02068C33.5599 7.56613 33.4769 7.19423 33.3525 6.82233C33.228 6.45043 33.0206 6.16117 32.7717 5.87192C32.5228 5.62398 32.2324 5.41737 31.9421 5.25208C31.6102 5.12812 31.2783 5.04547 30.9465 5.04547C30.6146 5.04547 30.2413 5.12812 29.9509 5.25208C29.6605 5.37605 29.3286 5.58266 29.1212 5.87192C28.9138 6.16117 28.6649 6.45043 28.5405 6.82233C28.416 7.19423 28.3331 7.56613 28.3331 8.02068Z" fill="currentColor"/>
<path d="M42.6003 12.6901C42.144 12.6901 41.7292 12.6488 41.3973 12.5248C41.0654 12.4421 40.7751 12.3182 40.5676 12.1529C40.3187 11.9876 40.1113 11.8223 39.9454 11.657L39.5306 12.5661H38.2031V0.5H40.0284V4.3843C40.1943 4.17769 40.4017 4.0124 40.6506 3.84711C40.858 3.72314 41.1484 3.59917 41.4388 3.51653C41.7706 3.39256 42.144 3.35124 42.5588 3.35124C43.1811 3.35124 43.7618 3.47521 44.2596 3.68182C44.7989 3.92975 45.2552 4.21901 45.67 4.63223C46.0849 5.04545 46.3752 5.54132 46.6241 6.11983C46.873 6.69835 46.956 7.31818 46.956 8.02066C46.956 8.72314 46.8315 9.34298 46.6241 9.92149C46.4167 10.5 46.0849 10.9959 45.67 11.4091C45.2552 11.8223 44.7989 12.1529 44.2596 12.3595C43.7618 12.6074 43.1811 12.6901 42.6003 12.6901ZM42.4759 5.08678C42.1025 5.08678 41.7706 5.16942 41.4803 5.29339C41.1899 5.41736 40.858 5.62397 40.6506 5.91322C40.4017 6.16116 40.1943 6.49174 40.0699 6.86364C39.9454 7.23554 39.8624 7.60744 39.8624 8.06198C39.8624 8.51653 39.9454 8.88843 40.0699 9.26033C40.1943 9.63223 40.4017 9.92149 40.6506 10.2107C40.8995 10.4587 41.1899 10.6653 41.4803 10.8306C41.8121 10.9545 42.144 11.0372 42.4759 11.0372C42.8077 11.0372 43.1811 10.9545 43.4714 10.8306C43.8033 10.7066 44.0937 10.5 44.3011 10.2107C44.55 9.96281 44.7159 9.63223 44.8819 9.26033C45.0063 8.88843 45.0893 8.51653 45.0893 8.06198C45.0893 7.60744 45.0063 7.23554 44.8819 6.86364C44.7574 6.49174 44.55 6.20248 44.3011 5.91322C44.0522 5.66529 43.7618 5.45868 43.4714 5.29339C43.1811 5.1281 42.8492 5.08678 42.4759 5.08678Z" fill="currentColor"/>
</svg>
