<svg width="56" height="56" viewBox="0 0 56 56" fill="none" xmlns="http://www.w3.org/2000/svg">
<circle cx="28" cy="28" r="28" fill="#008C95"/>
<path d="M35.1951 26.7886C35.1951 26.7886 35.577 22.3858 35.6088 21.9513C35.6645 21.2544 35.1236 20 33.8189 20H29.9607H27.6458H27.2799H23.0319C21.7273 20 21.0909 20.9183 21.0113 21.7873C20.9557 22.3038 20.0647 32.954 20.009 33.5689C19.9135 34.5528 20.5818 35.676 21.783 35.676H26.3173H28.2106H32.5143C33.9383 35.676 34.4951 34.8971 34.6144 33.7001C34.686 32.9868 35.036 28.6497 35.036 28.6497H28.5527L28.2743 32.003H26.6276L27.3356 23.6812H28.9743L28.7118 26.7968H35.1951V26.7886Z" fill="white"/>
</svg>
