<svg width="101" height="43" viewBox="0 0 101 43" fill="none" xmlns="http://www.w3.org/2000/svg">
<path d="M38.125 23.1722C34 20.9476 29.875 21.2965 25.75 25.6131C17.5352 34.2096 11.9442 38.5694 1 42H100V1C95.9582 2.59997 91.9035 4.24177 87.625 4.91117C83.5 5.55655 79.375 5.21443 75.25 8.35506C71.125 11.4957 67 18.1191 62.875 23.1392C58.75 28.1593 54.625 31.5762 50.5 30.8856C46.375 30.195 42.25 25.3969 38.125 23.1722Z" fill="url(#paint0_linear_921_4755)"/>
<path d="M1 42C11.9442 38.5694 17.5352 34.2096 25.75 25.6131C29.875 21.2965 34 20.9476 38.125 23.1722C42.25 25.3969 46.375 30.195 50.5 30.8856C54.625 31.5762 58.75 28.1593 62.875 23.1392C67 18.1191 71.125 11.4957 75.25 8.35506C79.375 5.21443 83.5 5.55655 87.625 4.91117C91.9035 4.24177 95.9582 2.59997 100 1" stroke="#77E2C3" stroke-width="2"/>
<defs>
<linearGradient id="paint0_linear_921_4755" x1="50.5" y1="15.8588" x2="50.5" y2="42" gradientUnits="userSpaceOnUse">
<stop stop-color="#77E2C3" stop-opacity="0.5"/>
<stop offset="1" stop-color="#77E2C3" stop-opacity="0"/>
</linearGradient>
</defs>
</svg>
