<svg width="80" height="80" viewBox="0 0 80 80" fill="none" xmlns="http://www.w3.org/2000/svg">
<path d="M60.7976 49.0601L47.1179 56.7957H24.0586V69.3667H48.4954L65.1296 57.3603C70.7454 53.8283 66.5098 46.0789 60.7976 49.0601Z" fill="currentColor"/>
<path d="M37.3718 56.7959H24.0586V48.2919H37.3718C39.7201 48.2919 41.6238 50.1956 41.6238 52.5439C41.6238 54.8916 39.7201 56.7959 37.3718 56.7959Z" fill="currentColor"/>
<path d="M11 69.3667H24.0599V48.2917H11V69.3667Z" fill="#008C95"/>
<path d="M50.625 16.4545C50.625 18.3545 44.9021 19.9091 37.8125 19.9091C30.7229 19.9091 25 18.3545 25 16.4545C25 14.5545 30.7229 13 37.8125 13C44.9021 13 50.625 14.5545 50.625 16.4545Z" fill="currentColor"/>
<path d="M43.625 27.4545C43.625 29.3545 37.9021 30.9091 30.8125 30.9091C23.7229 30.9091 18 29.3545 18 27.4545C18 25.5545 23.7229 24 30.8125 24C37.9021 24 43.625 25.5545 43.625 27.4545Z" fill="white"/>
<path d="M58.625 37.4545C58.625 39.3545 52.9021 40.9091 45.8125 40.9091C38.7229 40.9091 33 39.3545 33 37.4545C33 35.5545 38.7229 34 45.8125 34C52.9021 34 58.625 35.5545 58.625 37.4545Z" fill="#008C95"/>
</svg>
