<svg width="80" height="80" viewBox="0 0 80 80" fill="none" xmlns="http://www.w3.org/2000/svg">
<path d="M14.2642 62.3672C14.7047 62.186 15.1044 61.921 15.4406 61.5873L33.9215 42.8623L40.7234 35.9706L40 32.5L36.3447 31.6626L10.3099 56.5386C9.97131 56.8699 9.70248 57.2639 9.51882 57.6977C9.33516 58.1316 9.24028 58.5969 9.23963 59.067C9.23897 59.5371 9.33255 60.0026 9.515 60.437C9.69746 60.8714 9.96519 61.266 10.3028 61.5983C10.6405 61.9305 11.0414 62.1939 11.4827 62.3732C11.9239 62.5525 12.3967 62.6443 12.8741 62.6433C13.3514 62.6423 13.8238 62.5485 14.2642 62.3672Z" fill="#00313C"/>
<path d="M44.1768 41.5044C44.1768 41.5044 41.8196 36.7033 38.702 33.6432C35.5844 30.5832 30.7112 28.2658 30.7112 28.2658L42.0355 17.6389C42.0355 17.6389 43.9167 21.9753 47.5 25.5C51.0833 29.0247 55.4866 30.8774 55.4866 30.8774L44.1768 41.5044Z" fill="white"/>
<rect width="8.65365" height="22.7158" transform="matrix(0.712061 0.702117 -0.712061 0.702117 39.425 9)" fill="#008C95"/>
<rect width="8.65365" height="22.7158" transform="matrix(0.712061 0.702117 -0.712061 0.702117 57.9429 27.2593)" fill="#008C95"/>
<rect x="37.1739" y="59.0908" width="31.8261" height="7.90909" fill="white"/>
</svg>
