<svg width="80" height="80" viewBox="0 0 80 80" fill="none" xmlns="http://www.w3.org/2000/svg">
<rect x="12" y="20.4924" width="34.3636" height="36.9091" fill="#008C95"/>
<path d="M46.3636 57.4014H68V41.4923L62.2727 25.5833H46.3636V57.4014Z" fill="currentColor"/>
<path d="M54.6364 41.4923H68L62.2727 25.5833H54.6364V41.4923Z" fill="white"/>
<path d="M26.7271 62.5632C29.9906 62.5632 32.6362 59.8724 32.6362 56.5531C32.6362 53.2338 29.9906 50.543 26.7271 50.543C23.4636 50.543 20.8181 53.2338 20.8181 56.5531C20.8181 59.8724 23.4636 62.5632 26.7271 62.5632Z" fill="currentColor"/>
<path d="M57.4544 62.5632C60.7179 62.5632 63.3635 59.8724 63.3635 56.5531C63.3635 53.2338 60.7179 50.543 57.4544 50.543C54.1909 50.543 51.5453 53.2338 51.5453 56.5531C51.5453 59.8724 54.1909 62.5632 57.4544 62.5632Z" fill="#008C95"/>
</svg>
