<svg width="80" height="80" viewBox="0 0 80 80" fill="none" xmlns="http://www.w3.org/2000/svg">
<path d="M39.9453 42.8071L52.677 35.453L52.6926 20.716L50.888 21.7576L39.9601 28.0681L39.9453 42.8071Z" fill="#77E2C3"/>
<path d="M52.7034 20.7205L39.9756 13.3331L27.2334 20.6931L37.3109 26.537V26.52L39.9672 28.0721C42.2654 26.7471 47.1904 23.9035 51.6189 21.3461L52.7034 20.7205Z" fill="#77E2C3"/>
<path d="M27.2188 35.4269L39.9356 42.8085L39.9506 28.0682L27.2337 20.6894L27.2188 35.4269Z" fill="#008C95"/>
<path d="M53.7266 61.4453L48.4336 53.2811C47.5189 51.8698 47.9212 49.9843 49.3321 49.0696L63.4564 39.9121L67.0469 45.4498C68.9024 48.3111 68.0872 52.1348 65.2259 53.9901L53.7266 61.4453Z" fill="#008C95"/>
<path d="M59.0651 66.6665H46.5859V50.6573C53.4779 50.6573 59.0651 56.2447 59.0651 63.1365V66.6665Z" fill="#77E2C3"/>
<path d="M64.0226 53.1672C61.8272 53.1672 60.0459 51.3872 60.0459 49.1919V31.9204C60.0459 29.7246 61.8272 27.9452 64.0226 27.9452C66.2177 27.9452 67.9977 29.7246 67.9977 31.9204V49.1919C67.9977 51.3872 66.2177 53.1672 64.0226 53.1672Z" fill="#008C95"/>
<path d="M63.2369 42.4199C62.1099 40.6816 59.7869 40.1868 58.0488 41.3131L48.2968 47.6366C46.5584 48.7636 46.0631 51.0866 47.1899 52.8241C48.3176 54.5631 50.6399 55.0586 52.3781 53.9316L62.1301 47.6079C63.8684 46.4811 64.3638 44.1581 63.2369 42.4199Z" fill="#77E2C3"/>
<path d="M26.2698 61.4452L31.5628 53.281C32.4788 51.8697 32.0758 49.9842 30.6643 49.0695L16.54 39.912L12.9495 45.4497C11.094 48.311 11.9104 52.1347 14.7717 53.99L26.2698 61.4452Z" fill="#008C95"/>
<path d="M20.9297 66.6665H33.4102V50.6573C26.5169 50.6573 20.9297 56.2447 20.9297 63.1365V66.6665Z" fill="#77E2C3"/>
<path d="M15.9756 53.1672C18.1709 53.1672 19.9509 51.3872 19.9509 49.1918V31.9203C19.9509 29.7245 18.1709 27.9452 15.9756 27.9452C13.7796 27.9452 11.999 29.7245 11.999 31.9203V49.1918C11.999 51.3872 13.7796 53.1672 15.9756 53.1672Z" fill="#008C95"/>
<path d="M16.7606 42.4199C17.8876 40.6816 20.2105 40.1868 21.9481 41.3131L31.7014 47.6366C33.4384 48.7636 33.9337 51.0866 32.8069 52.8241C31.6805 54.5631 29.3571 55.0586 27.6201 53.9316L17.8674 47.6079C16.1291 46.4811 15.633 44.1581 16.7606 42.4199Z" fill="#77E2C3"/>
</svg>
