<svg width="80" height="80" viewBox="0 0 80 80" fill="none" xmlns="http://www.w3.org/2000/svg">
<path d="M19.1697 33.0306H11.9502V13.3508H32.0342V20.5703H19.1697V33.0306Z" fill="#77E2C3"/>
<path d="M68.0498 33.3698H60.8303V20.5703H47.9658V13.3508H68.0498V33.3698Z" fill="#77E2C3"/>
<path d="M32.0342 66.649H11.9502V46.627H19.1697V59.4296H32.0342V66.649Z" fill="#77E2C3"/>
<path d="M68.0498 66.649H47.9658V59.4296H60.8303V46.627H68.0498V66.649Z" fill="#77E2C3"/>
<path d="M27.8193 39.5652C27.8193 46.4792 33.4242 52.084 40.3368 52.084C47.2503 52.084 52.8552 46.4792 52.8552 39.5652C52.8552 32.6517 47.2503 27.0468 40.3368 27.0468C33.4242 27.0468 27.8193 32.6517 27.8193 39.5652Z" fill="#008C95"/>
</svg>
