<svg width="80" height="80" viewBox="0 0 80 80" fill="none" xmlns="http://www.w3.org/2000/svg">
<path d="M56.3881 30.1309L56.3836 30.1302C54.8932 21.5567 47.4226 15.0359 38.4226 15.0359C28.3516 15.0359 20.1869 23.1999 20.1869 33.2716C20.1869 37.1114 21.3777 40.6726 23.4051 43.6121L19.0039 58.6497L40.5794 64.9649L43.0717 56.4486H55.3177V45.9389H60.9949L56.3881 30.1309Z" fill="#77E2C3"/>
<path d="M45.2143 36.8393C44.0821 38.5678 43.4851 40.4475 43.4851 42.2743V44.172C43.4851 46.8888 41.2748 49.0991 38.5573 49.0991C35.8406 49.0991 33.6316 46.8888 33.6316 44.172V41.9636C33.6316 40.269 33.0633 38.5425 31.9889 36.9708C31.0848 35.6486 30.6074 34.1005 30.6074 32.493C30.6074 30.2331 31.5749 28.0718 33.2604 26.566C34.9448 25.06 37.2064 24.34 39.4694 24.5945C43.0521 24.9975 45.9844 27.883 46.4414 31.4565C46.6829 33.3505 46.2474 35.2618 45.2143 36.8393Z" fill="white"/>
<path d="M43.5318 41.3283L33.5859 41.351V44.185C33.5859 46.9272 35.8169 49.1583 38.5584 49.1583C41.3008 49.1583 43.5318 46.9272 43.5318 44.185V41.3283Z" fill="#008C95"/>
</svg>
