<svg width="80" height="80" viewBox="0 0 80 80" fill="none" xmlns="http://www.w3.org/2000/svg">
<path d="M61.4109 47.8764L47.7312 55.612H24.6719V68.183H49.1087L65.7429 56.1765C71.3587 52.6445 67.123 44.8952 61.4109 47.8764Z" fill="#77E2C3"/>
<path d="M37.985 55.6122H24.6719V47.1082H37.985C40.3334 47.1082 42.237 49.0119 42.237 51.3602C42.237 53.7079 40.3334 55.6122 37.985 55.6122Z" fill="#77E2C3"/>
<path d="M11.6133 68.183H24.6732V47.108H11.6133V68.183Z" fill="#008C95"/>
<path d="M57.2064 32.14C48.4044 31.1407 41.7175 37.4987 42.2702 46.3399C51.073 47.3392 57.7599 40.9812 57.2064 32.14Z" fill="#008C95"/>
<path d="M23.2273 25.7708C32.0302 24.7721 38.717 31.1294 38.1637 39.9719C29.3615 40.9699 22.674 34.6126 23.2273 25.7708Z" fill="#008C95"/>
<path d="M40.915 11.8177V11.8163V11.8177C34.2549 17.4003 34.2549 26.4532 40.915 32.0365C47.5752 26.4532 47.5752 17.4003 40.915 11.8177Z" fill="#77E2C3"/>
</svg>
