<svg width="80" height="80" viewBox="0 0 80 80" fill="none" xmlns="http://www.w3.org/2000/svg">
<path d="M61.3805 28.4858C61.3805 34.0158 56.8982 38.4988 51.3675 38.4988C45.8375 38.4988 41.3545 34.0158 41.3545 28.4858C41.3545 22.9558 45.8375 18.4728 51.3675 18.4728C56.8982 18.4728 61.3805 22.9558 61.3805 28.4858Z" fill="#008C95"/>
<path d="M37.6584 26.7545C37.6584 31.7838 33.5822 35.86 28.5529 35.86C23.5244 35.86 19.4482 31.7838 19.4482 26.7545C19.4482 21.7258 23.5244 17.6497 28.5529 17.6497C33.5822 17.6497 37.6584 21.7258 37.6584 26.7545Z" fill="#77E2C3"/>
<path d="M59.1414 44.2508H42.3907C44.2859 46.1695 45.4577 48.8041 45.4577 51.7143V53.7898H31.7617C31.7259 54.1466 31.707 54.5086 31.707 54.8738V62.3505H69.7644V54.8738C69.7644 49.0073 65.0079 44.2508 59.1414 44.2508Z" fill="#008C95"/>
<path d="M42.3313 44.2508H42.3907C40.4642 42.301 37.7917 41.0907 34.8347 41.0907H20.8573C14.9909 41.0907 10.2344 45.8465 10.2344 51.7143V56.1695H31.707L31.7617 53.7898C32.3053 48.4318 36.83 44.2508 42.3313 44.2508Z" fill="#77E2C3"/>
<path d="M45.4587 51.7143C45.4587 48.8041 44.2869 46.1694 42.3917 44.2508H42.3324C36.831 44.2508 32.3064 48.4318 31.7627 53.7898V56.1694H45.4587V51.7143Z" fill="white"/>
</svg>
