<svg width="24" height="24" viewBox="0 0 24 24" fill="none" xmlns="http://www.w3.org/2000/svg">
<path d="M12.02 2C6.21 2 2 6.74712 2 12.015C2 13.6975 2.49 15.4301 3.35 17.0125C3.51 17.2729 3.53 17.6034 3.42 17.9139L2.75 20.1572C2.6 20.698 3.06 21.0986 3.57 20.9384L5.59 20.3375C6.14 20.1572 6.57 20.3876 7.08 20.698C8.54 21.5593 10.36 22 12 22C16.96 22 22 18.1642 22 11.985C22 6.65699 17.7 2 12.02 2Z" fill="#77E2C3"/>
<path fill-rule="evenodd" clip-rule="evenodd" d="M10.7 12.015C10.7 12.7261 11.27 13.2969 11.98 13.307C12.69 13.307 13.26 12.7261 13.26 12.025C13.26 11.314 12.69 10.7431 11.98 10.7431C11.28 10.7331 10.7 11.314 10.7 12.015ZM15.31 12.025C15.31 12.7261 15.88 13.307 16.59 13.307C17.3 13.307 17.87 12.7261 17.87 12.025C17.87 11.314 17.3 10.7431 16.59 10.7431C15.88 10.7431 15.31 11.314 15.31 12.025Z" fill="#00313C"/>
<path d="M7.37 13.3069C6.67 13.3069 6.09 12.7261 6.09 12.025C6.09 11.314 6.66 10.7431 7.37 10.7431C8.08 10.7431 8.65 11.314 8.65 12.025C8.65 12.7261 8.08 13.2969 7.37 13.3069Z" fill="#00313C"/>
</svg>
