<svg width="24" height="24" viewBox="0 0 24 24" fill="none" xmlns="http://www.w3.org/2000/svg">
<path d="M2 12C2 17.53 6.48 22 12 22C17.53 22 22 17.53 22 12C22 6.48 17.53 2 12 2C6.48 2 2 6.48 2 12Z" fill="#77E2C3"/>
<path d="M15.58 15.8199C15.44 15.8199 15.31 15.7799 15.19 15.7099L11.27 13.3699C11.04 13.2299 10.9 12.9899 10.9 12.7299V7.67993C10.9 7.25993 11.24 6.92993 11.65 6.92993C12.06 6.92993 12.4 7.25993 12.4 7.67993V12.2999L15.96 14.4199C16.32 14.6399 16.43 15.0999 16.22 15.4499C16.08 15.6899 15.83 15.8199 15.58 15.8199Z" fill="#00313C"/>
</svg>
