<svg width="24" height="24" viewBox="0 0 24 24" fill="none" xmlns="http://www.w3.org/2000/svg">
<path d="M16.3344 17.7486L17.0415 18.4557L18.4557 17.0415L17.7486 16.3344L16.3344 17.7486ZM6.70711 5.29289L6 4.58579L4.58579 6L5.29289 6.70711L6.70711 5.29289ZM17.7486 16.3344L6.70711 5.29289L5.29289 6.70711L16.3344 17.7486L17.7486 16.3344Z" fill="currentColor"/>
<path d="M5.29338 16.3344L4.58627 17.0415L6.00049 18.4557L6.70759 17.7486L5.29338 16.3344ZM17.7491 6.70711L18.4562 6L17.042 4.58579L16.3349 5.29289L17.7491 6.70711ZM6.70759 17.7486L17.7491 6.70711L16.3349 5.29289L5.29338 16.3344L6.70759 17.7486Z" fill="currentColor"/>
</svg>
