<svg width="24" height="24" viewBox="0 0 24 24" fill="none" xmlns="http://www.w3.org/2000/svg">
<path fill-rule="evenodd" clip-rule="evenodd" d="M11.6065 3.13264L1 8.46735L3.2 9.57388L11.6065 13.8021L11.6236 13.8107L12 14L12.3764 13.8107L12.3935 13.8021L17.4132 11.2773L20.8 9.57388L23 8.46735L12.3935 3.13264C12.2492 3.06006 12.1771 3.02377 12.1014 3.00949C12.0344 2.99684 11.9656 2.99684 11.8986 3.00949C11.8229 3.02377 11.7508 3.06006 11.6065 3.13264Z" fill="#77E2C3"/>
<path d="M11.6422 15.3211L4 11.5V17.4081L12 21L20 17.5V11.5L16.9211 13.0394L12.3578 15.3211L12.3421 15.3289L12 15.5L11.6579 15.3289L11.6422 15.3211Z" fill="#77E2C3"/>
<path d="M12 8.5L17.5 11V16" stroke="#00313C" stroke-linecap="round"/>
</svg>
