<svg width="24" height="24" viewBox="0 0 24 24" fill="none" xmlns="http://www.w3.org/2000/svg">
<path fill-rule="evenodd" clip-rule="evenodd" d="M4.12819 2H19.8718C21.0476 2 22 2.98105 22 4.19225V5.72376C22 6.31133 21.7704 6.87557 21.3627 7.28708L14.8577 13.867C14.8065 13.9193 14.747 13.9609 14.6824 13.9906V19.1354C14.6824 19.4472 14.5053 19.7293 14.2294 19.8598L9.8227 21.929C9.71974 21.9767 9.6106 22.0001 9.50146 22.0001C9.35629 22.0001 9.21112 21.9577 9.08448 21.8739C8.86311 21.7275 8.72926 21.4751 8.72926 21.2046V13.9659C8.66351 13.9331 8.60344 13.888 8.55238 13.832L2.57452 7.25738C2.20489 6.85117 2 6.31451 2 5.7577V4.19332C2 2.98211 2.95238 2 4.12819 2Z" fill="#77E2C3"/>
<path d="M9.8 15H13.6" stroke="#00313C" stroke-width="2" stroke-linecap="square"/>
</svg>
