<svg width="24" height="24" viewBox="0 0 24 24" fill="none" xmlns="http://www.w3.org/2000/svg">
<path d="M12.0001 21.9993C6.48011 21.9993 2.00011 17.5183 2.00011 11.9993C2.00011 6.47827 6.48011 1.99927 12.0001 1.99927C17.5301 1.99927 22.0001 6.47827 22.0001 11.9993C22.0001 17.5183 17.5301 21.9993 12.0001 21.9993Z" fill="#77E2C3"/>
<path d="M12.0101 7.31824C11.5201 7.31824 11.1301 7.71824 11.1301 8.19824C11.1301 8.67824 11.5201 9.06824 12.0001 9.06824C12.4901 9.06824 12.8801 8.67824 12.8801 8.19824C12.8801 7.71824 12.4901 7.31824 12.0101 7.31824Z" fill="#00313C"/>
<path d="M11.1201 15.7893C11.1201 16.2683 11.5201 16.6693 12.0001 16.6693C12.4801 16.6693 12.8701 16.2683 12.8701 15.7893V11.3693C12.8701 10.8883 12.4801 10.4993 12.0001 10.4993C11.5201 10.4993 11.1201 10.8883 11.1201 11.3693V15.7893Z" fill="#00313C"/>
</svg>
