<svg width="4" height="8" viewBox="0 0 4 8" fill="none" xmlns="http://www.w3.org/2000/svg">
<path d="M1.27083 5.65608V5.46032C1.27083 5.25926 1.28299 5.0776 1.30729 4.91534C1.33507 4.75309 1.38194 4.60141 1.44792 4.46032C1.51736 4.31922 1.60938 4.18166 1.72396 4.04762C1.83854 3.91005 1.98264 3.7672 2.15625 3.61905C2.32292 3.47443 2.46528 3.34392 2.58333 3.22751C2.70139 3.10758 2.79688 2.98765 2.86979 2.86772C2.94618 2.74427 3.00174 2.61376 3.03646 2.47619C3.07465 2.3351 3.09375 2.17108 3.09375 1.98413C3.09375 1.81481 3.06771 1.66138 3.01562 1.52381C2.96354 1.38272 2.88715 1.26279 2.78646 1.16402C2.68924 1.06173 2.56597 0.984127 2.41667 0.931217C2.27083 0.87478 2.10069 0.846561 1.90625 0.846561C1.61806 0.846561 1.34375 0.892416 1.08333 0.984127C0.822917 1.07584 0.571181 1.18166 0.328125 1.30159L0 0.534391C0.28125 0.386243 0.58507 0.261023 0.911458 0.15873C1.23785 0.0529099 1.56944 0 1.90625 0C2.22917 0 2.5191 0.0458553 2.77604 0.137566C3.03646 0.22575 3.25694 0.354497 3.4375 0.523809C3.61806 0.693122 3.75694 0.901234 3.85417 1.14815C3.95139 1.39153 4 1.66667 4 1.97355C4 2.20988 3.97569 2.42152 3.92708 2.60847C3.88194 2.79189 3.8125 2.96296 3.71875 3.12169C3.625 3.28042 3.50868 3.43386 3.36979 3.58201C3.2309 3.73016 3.06771 3.88712 2.88021 4.05291C2.69965 4.21164 2.55208 4.35097 2.4375 4.4709C2.32292 4.5873 2.23264 4.70194 2.16667 4.81482C2.10069 4.92416 2.05556 5.03704 2.03125 5.15344C2.00694 5.26984 1.99479 5.40564 1.99479 5.56085V5.65608H1.27083ZM1.02083 7.25926C1.02083 7.12522 1.03819 7.01235 1.07292 6.92064C1.10764 6.8254 1.15451 6.74956 1.21354 6.69312C1.27257 6.63316 1.34201 6.59083 1.42188 6.56614C1.50174 6.53792 1.58854 6.52381 1.68229 6.52381C1.77257 6.52381 1.85764 6.53792 1.9375 6.56614C2.02083 6.59083 2.09201 6.63316 2.15104 6.69312C2.21007 6.74956 2.25694 6.8254 2.29167 6.92064C2.32639 7.01235 2.34375 7.12522 2.34375 7.25926C2.34375 7.38977 2.32639 7.50265 2.29167 7.59788C2.25694 7.68959 2.21007 7.76543 2.15104 7.8254C2.09201 7.88536 2.02083 7.92945 1.9375 7.95767C1.85764 7.98589 1.77257 8 1.68229 8C1.58854 8 1.50174 7.98589 1.42188 7.95767C1.34201 7.92945 1.27257 7.88536 1.21354 7.8254C1.15451 7.76543 1.10764 7.68959 1.07292 7.59788C1.03819 7.50265 1.02083 7.38977 1.02083 7.25926Z" fill="currentColor"/>
</svg>
