<svg width="24" height="24" viewBox="0 0 24 24" fill="none" xmlns="http://www.w3.org/2000/svg">
<path d="M12.0865 22C11.9627 22.0009 11.8389 21.9715 11.7281 21.9137L8.12702 20.0505C7.10417 19.52 6.30482 18.9258 5.68064 18.2335C4.3145 16.7194 3.55542 14.7758 3.54233 12.7597L3.50005 6.12397C3.49602 5.35811 3.98932 4.67071 4.72827 4.41281L11.3405 2.10643C11.7332 1.96718 12.1711 1.96424 12.5708 2.09956L19.2082 4.32652C19.9512 4.57461 20.4535 5.25711 20.4575 6.02198L20.4998 12.6626C20.5129 14.6758 19.779 16.6282 18.435 18.1579C17.8169 18.8601 17.0246 19.4631 16.0128 20.0025L12.4449 21.9097C12.3332 21.9686 12.2103 21.999 12.0865 22Z" fill="#77E2C3"/>
<path d="M11.3192 14.3207C11.1259 14.3227 10.9326 14.2521 10.7836 14.1089L8.86778 12.2654C8.57079 11.98 8.56777 11.5152 8.86073 11.226C9.1547 10.9367 9.63189 10.9337 9.92888 11.2191L11.3081 12.5449L14.6767 9.22454C14.9696 8.93526 15.4478 8.9333 15.7448 9.21866C16.0408 9.50402 16.0438 9.96882 15.7508 10.2581L11.8517 14.1021C11.7048 14.2472 11.5125 14.3198 11.3192 14.3207Z" fill="#00313C"/>
</svg>
