<svg width="24" height="24" viewBox="0 0 24 24" fill="none" xmlns="http://www.w3.org/2000/svg">
<rect x="3" y="5" width="12" height="13" fill="#77E2C3"/>
<path d="M15 18H22V13.5L20.1471 9H15V18Z" fill="#77E2C3"/>
<path d="M8 20C9.10457 20 10 19.1046 10 18C10 16.8954 9.10457 16 8 16C6.89543 16 6 16.8954 6 18C6 19.1046 6.89543 20 8 20Z" fill="#00313C"/>
<path d="M17 20C18.1046 20 19 19.1046 19 18C19 16.8954 18.1046 16 17 16C15.8954 16 15 16.8954 15 18C15 19.1046 15.8954 20 17 20Z" fill="#00313C"/>
</svg>
