<svg width="24" height="24" viewBox="0 0 24 24" fill="none" xmlns="http://www.w3.org/2000/svg">
<path d="M2.00485 13.0758C2.11089 10.761 3.94714 8.89301 6.23118 8.78513L6.44001 8.78021L2.00485 8.78513V13.0758Z" fill="#77E2C3"/>
<path d="M6.35237 22.7791C4.00749 22.7277 2.11262 20.8272 2.00485 18.4651V22.7802L6.35237 22.7791Z" fill="#77E2C3"/>
<path d="M21.9615 18.8598C21.6828 21.0022 19.9254 22.6734 17.7689 22.7753L17.7242 22.7763L21.9952 22.7753L21.9615 18.8598Z" fill="#77E2C3"/>
<path d="M17.55 8.78021C19.6877 8.78021 21.4828 10.3216 21.9057 12.3772L21.8748 8.78021H17.55Z" fill="#77E2C3"/>
<path d="M11.23 8.78021V14.8849C11.23 15.3224 11.57 15.6683 12 15.6683C12.385 15.6683 12.7112 15.3776 12.7629 14.9922L12.77 14.8849V8.78021H11.23Z" fill="#77E2C3"/>
<path d="M6.44001 8.78021L6.23118 8.78513C3.94714 8.89301 2.11089 10.761 2.00485 13.0758V18.4651C2.11262 20.8272 4.00749 22.7277 6.35237 22.7791L17.7242 22.7763L17.7689 22.7753C19.9254 22.6734 21.6828 21.0022 21.9615 18.8598L21.9057 12.3772C21.4828 10.3216 19.6877 8.78021 17.55 8.78021H12.77V14.8849L12.7629 14.9922C12.7112 15.3776 12.385 15.6683 12 15.6683C11.57 15.6683 11.23 15.3224 11.23 14.8849V8.78021H6.44001Z" fill="#77E2C3"/>
<path d="M8.5502 6.24C8.26838 5.96727 8.24276 5.53752 8.46583 5.23624L8.5402 5.15L11.4502 2.23C11.6002 2.08 11.7902 2 12.0002 2C12.1602 2 12.3202 2.0512 12.4495 2.14848L12.5402 2.23L15.4502 5.15C15.6002 5.3 15.6802 5.5 15.6802 5.69C15.6802 5.89 15.6002 6.09 15.4502 6.24C15.1775 6.51273 14.7477 6.53752 14.4464 6.31438L14.3602 6.24L12.7702 4.64V17H11.2302V4.64L9.6402 6.24C9.3402 6.54 8.8502 6.54 8.5502 6.24Z" fill="#00313C"/>
</svg>
